<?xml version="1.0" standalone="no"?><svg xmlns="http://www.w3.org/2000/svg" viewBox="0 0 1440 320"><path fill="#f5982e" fill-opacity="1" d="M0,64L24,80C48,96,96,128,144,154.7C192,181,240,203,288,202.7C336,203,384,181,432,192C480,203,528,245,576,250.7C624,256,672,224,720,186.7C768,149,816,107,864,106.7C912,107,960,149,1008,149.3C1056,149,1104,107,1152,80C1200,53,1248,43,1296,69.3C1344,96,1392,160,1416,192L1440,224L1440,320L1416,320C1392,320,1344,320,1296,320C1248,320,1200,320,1152,320C1104,320,1056,320,1008,320C960,320,912,320,864,320C816,320,768,320,720,320C672,320,624,320,576,320C528,320,480,320,432,320C384,320,336,320,288,320C240,320,192,320,144,320C96,320,48,320,24,320L0,320Z"></path></svg>